<?xml version="1.0" encoding="UTF-8" standalone="no"?>
<!-- Created with Inkscape (http://www.inkscape.org/) -->

<svg
   width="210mm"
   height="297mm"
   viewBox="0 0 210 297"
   version="1.1"
   id="svg5"
   inkscape:version="1.1.1 (3bf5ae0d25, 2021-09-20, custom)"
   sodipodi:docname="dumpster.svg"
   xmlns:inkscape="http://www.inkscape.org/namespaces/inkscape"
   xmlns:sodipodi="http://sodipodi.sourceforge.net/DTD/sodipodi-0.dtd"
   xmlns="http://www.w3.org/2000/svg"
   xmlns:svg="http://www.w3.org/2000/svg">
  <sodipodi:namedview
     id="namedview7"
     pagecolor="#ffffff"
     bordercolor="#666666"
     borderopacity="1.0"
     inkscape:pageshadow="2"
     inkscape:pageopacity="0.0"
     inkscape:pagecheckerboard="0"
     inkscape:document-units="mm"
     showgrid="false"
     inkscape:zoom="30.245593"
     inkscape:cx="117.75269"
     inkscape:cy="49.230312"
     inkscape:window-width="1920"
     inkscape:window-height="1080"
     inkscape:window-x="0"
     inkscape:window-y="0"
     inkscape:window-maximized="1"
     inkscape:current-layer="layer1" />
  <defs
     id="defs2" />
  <g
     inkscape:label="Layer 1"
     inkscape:groupmode="layer"
     id="layer1">
    <path
       style="fill:#141414;fill-opacity:1;stroke:#ffffff;stroke-width:0.0744935px;stroke-linecap:butt;stroke-linejoin:miter;stroke-opacity:0"
       d="M 22.463136,6.6556654 22.59535,37.885403 32.010543,45.117062 31.77023,13.608213 Z"
       id="path1913"
       sodipodi:nodetypes="ccccc" />
    <path
       style="fill:#141414;fill-opacity:1;stroke:#ffffff;stroke-width:0.0744935px;stroke-linecap:butt;stroke-linejoin:miter;stroke-opacity:0"
       d="M 22.463136,6.6556654 22.59535,37.885403 32.010543,45.117062 31.77023,13.608213 Z"
       id="path1915"
       sodipodi:nodetypes="ccccc" />
    <path
       style="fill:#141414;fill-opacity:1;stroke:#ffffff;stroke-width:0.0744935px;stroke-linecap:butt;stroke-linejoin:miter;stroke-opacity:0"
       d="M 22.463136,6.6556654 22.59535,37.885403 32.010543,45.117062 31.77023,13.608213 Z"
       id="path1917"
       sodipodi:nodetypes="ccccc" />
    <path
       style="fill:#141414;stroke:#ffffff;stroke-width:0.0744935px;stroke-linecap:butt;stroke-linejoin:miter;stroke-opacity:0;fill-opacity:1"
       d="m 22.283163,5.76073 0.132214,31.229738 9.415193,7.231659 -0.240313,-31.508849 z"
       id="path185"
       sodipodi:nodetypes="ccccc" />
    <path
       style="fill:#1e1e1e;stroke:#000000;stroke-width:0.0744935px;stroke-linecap:butt;stroke-linejoin:miter;stroke-opacity:0.89513338;fill-opacity:1"
       d="M 105.38273,42.034421 106.56106,11.43692 31.590257,12.713278 31.83057,44.222127 Z"
       id="path220"
       sodipodi:nodetypes="ccccc" />
    <path
       style="fill:#333333;stroke:#000000;stroke-width:0.0744935px;stroke-linecap:butt;stroke-linejoin:miter;stroke-opacity:1"
       d="M 20.591602,4.997841 30.704665,13.53834 30.716843,11.832106 20.647034,3.1369958 Z"
       id="path345"
       sodipodi:nodetypes="ccccc" />
    <path
       style="fill:#666666;stroke:#000000;stroke-width:0.0744935px;stroke-linecap:butt;stroke-linejoin:miter;stroke-opacity:1"
       d="m 108.09011,12.310281 0.10901,-1.503846 -77.482277,1.025671 -0.01219,1.706234 z"
       id="path456"
       sodipodi:nodetypes="ccccc" />
    <path
       style="fill:#241c1c;stroke:#000000;stroke-width:0.0744935px;stroke-linecap:butt;stroke-linejoin:miter;stroke-opacity:1"
       d="m 22.486193,3.1492608 8.642686,7.4525782 76.284661,-1.0826214 0.79358,0.6431334 -0.008,0.644084 -77.482898,1.025671 -10.06976,-8.6951102 z"
       id="path804"
       sodipodi:nodetypes="cccccccc" />
    <path
       style="fill:#280b0b;stroke:#000000;stroke-width:0.0725984px;stroke-linecap:butt;stroke-linejoin:miter;stroke-opacity:1"
       d="m 98.885551,2.8841846 7.270959,6.6514126 1.25703,-0.015772 -7.22346,-6.620737 z"
       id="path2610"
       sodipodi:nodetypes="ccccc" />
    <path
       style="fill:#241c1c;stroke:#000000;stroke-width:0.0744935px;stroke-linecap:butt;stroke-linejoin:miter;stroke-opacity:1"
       d="m 99.964212,3.8508047 1.249868,-0.029351 0.0541,-2.5074848 c 0,0 0.0672,-0.78790423 -0.65712,-0.78677374 -0.45268,7.1303e-4 -1.103308,-0.003736 -1.103308,-0.003736 z"
       id="path5372"
       sodipodi:nodetypes="cccscc" />
    <path
       style="fill:#270000;fill-opacity:1;stroke:#000000;stroke-width:0.0744935px;stroke-linecap:butt;stroke-linejoin:miter;stroke-opacity:1"
       d="m 99.964212,3.8508047 0.127798,-2.6943238 c 0,0 0.0115,-0.61912687 -0.551615,-0.63651312 -0.563875,-0.017388 -0.471096,0.48313402 -0.471096,0.48313402 l -0.02506,1.9587318 z"
       id="path5147"
       sodipodi:nodetypes="ccsccc" />
    <path
       style="fill:#2b0000;stroke:#000000;stroke-width:0.0744935px;stroke-linecap:butt;stroke-linejoin:miter;stroke-opacity:1"
       d="m 22.486193,3.1492608 -0.08889,-1.8123445 c 0,0 0.05418,-0.60175169 -0.566063,-0.7477845 -0.624005,-0.0953228 -0.910679,0.0427804 -0.910679,0.0427804 l 0.134061,1.57817394 0.215287,1.6399058 z"
       id="path3935"
       sodipodi:nodetypes="ccccccc" />
    <path
       style="fill:#333333;stroke:#000000;stroke-width:0.0744935px;stroke-linecap:butt;stroke-linejoin:miter;stroke-opacity:1"
       d="m 20.591602,4.997841 -0.03853,-3.8422922 c 0,0 0.07369,-0.70429852 0.551588,-0.47582792 0.477897,0.22848086 0.370574,0.66584982 0.383125,0.91300852 0.01257,0.2471576 0.04722,4.2644505 0.04722,4.2644505 z"
       id="path3707" />
    <path
       style="fill:#1a1a1a;stroke:none;stroke-width:0.264583px;stroke-linecap:butt;stroke-linejoin:miter;stroke-opacity:1"
       d="m 32.447576,19.31344 -0.01515,1.283112 72.842965,-1.66503 0.11403,-1.347609 z"
       id="path18339"
       sodipodi:nodetypes="ccccc" />
    <path
       style="fill:#1a1a1a;stroke:none;stroke-width:0.264583px;stroke-linecap:butt;stroke-linejoin:miter;stroke-opacity:1"
       d="m 32.874803,34.231449 -0.02373,1.407867 72.12496,-1.762855 0.0926,-1.13887 z"
       id="path18339-0"
       sodipodi:nodetypes="ccccc" />
    <g
       aria-label="RFC5321, RFC5322, RFC7208, RFC7489, RFC6376 "
       transform="matrix(1.3250348,-0.02297345,0.01527117,1.910514,-19.80468,-2.0749608)"
       id="text55497"
       style="font-size:2.13925px;line-height:1.25;fill:#464344;fill-opacity:1;stroke-width:0.267405">
      <g
         id="g79916"
         transform="matrix(0.99981433,-0.00252277,0.01679115,0.75190121,0.41119241,2.9420508)"
         style="fill:#464344;fill-opacity:1">
        <path
           d="m 40.178303,15.081946 q 0.0679,0.02298 0.131614,0.09819 0.06476,0.07521 0.129525,0.206822 l 0.214134,0.426179 h -0.226669 l -0.19951,-0.400065 q -0.0773,-0.156683 -0.150416,-0.207866 -0.07207,-0.05118 -0.197421,-0.05118 h -0.229802 v 0.659114 h -0.211001 v -1.559521 h 0.476318 q 0.267406,0 0.39902,0.111767 0.131614,0.111767 0.131614,0.337391 0,0.147283 -0.06894,0.244426 -0.0679,0.09714 -0.198465,0.134748 z M 39.649758,14.42701 v 0.553614 h 0.265317 q 0.152505,0 0.229802,-0.06999 0.07834,-0.07103 0.07834,-0.207867 0,-0.136836 -0.07834,-0.205777 -0.0773,-0.06999 -0.229802,-0.06999 z"
           style="fill:#464344;fill-opacity:1"
           id="path80111" />
        <path
           d="m 40.92516,14.253614 h 0.896229 v 0.177574 H 41.13616 v 0.459604 h 0.618377 v 0.177575 H 41.13616 v 0.744768 h -0.211 z"
           style="fill:#464344;fill-opacity:1"
           id="path80108" />
        <path
           d="m 43.32346,14.373737 v 0.222491 q -0.106545,-0.09923 -0.227713,-0.148327 -0.120124,-0.04909 -0.255916,-0.04909 -0.267406,0 -0.409466,0.163995 -0.14206,0.162951 -0.14206,0.472139 0,0.308144 0.14206,0.472139 0.14206,0.162951 0.409466,0.162951 0.135792,0 0.255916,-0.04909 0.121168,-0.04909 0.227713,-0.148327 v 0.220401 q -0.110723,0.07521 -0.235025,0.112812 -0.123258,0.0376 -0.261139,0.0376 -0.354104,0 -0.557793,-0.216223 -0.203688,-0.217267 -0.203688,-0.592263 0,-0.37604 0.203688,-0.592263 0.203689,-0.217267 0.557793,-0.217267 0.139971,0 0.263228,0.0376 0.124302,0.03656 0.232936,0.110722 z"
           style="fill:#464344;fill-opacity:1"
           id="path80105" />
        <path
           d="m 43.670252,14.253614 h 0.828333 v 0.177574 h -0.63509 v 0.382307 q 0.04596,-0.01567 0.09192,-0.02298 0.04596,-0.0084 0.09192,-0.0084 0.261139,0 0.413644,0.143104 0.152505,0.143104 0.152505,0.38753 0,0.251738 -0.156683,0.391708 -0.156684,0.138926 -0.441847,0.138926 -0.09819,0 -0.200555,-0.01671 -0.101322,-0.01671 -0.209956,-0.05014 v -0.212045 q 0.09401,0.05118 0.194288,0.07625 0.100277,0.02507 0.212044,0.02507 0.180709,0 0.286209,-0.09506 0.1055,-0.09505 0.1055,-0.258005 0,-0.162951 -0.1055,-0.258005 -0.1055,-0.09506 -0.286209,-0.09506 -0.08461,0 -0.169218,0.0188 -0.08356,0.0188 -0.171307,0.05849 z"
           style="fill:#464344;fill-opacity:1"
           id="path80102" />
        <path
           d="m 45.668488,14.972268 q 0.15146,0.03238 0.236069,0.134748 0.08565,0.102366 0.08565,0.252782 0,0.230847 -0.158773,0.357238 -0.158772,0.126391 -0.451248,0.126391 -0.09819,0 -0.202644,-0.01985 -0.103411,-0.0188 -0.214134,-0.05745 v -0.203688 q 0.08774,0.05118 0.192199,0.0773 0.104455,0.02611 0.218312,0.02611 0.198465,0 0.301876,-0.07834 0.104456,-0.07834 0.104456,-0.227713 0,-0.137881 -0.09714,-0.215178 -0.0961,-0.07834 -0.26845,-0.07834 h -0.181753 v -0.173396 h 0.190109 q 0.155639,0 0.238159,-0.06163 0.08252,-0.06267 0.08252,-0.179664 0,-0.120124 -0.08565,-0.183842 -0.08461,-0.06476 -0.243381,-0.06476 -0.0867,0 -0.185931,0.0188 -0.09923,0.0188 -0.218313,0.0585 v -0.18802 q 0.120124,-0.03343 0.22458,-0.05014 0.1055,-0.01671 0.198466,-0.01671 0.240247,0 0.380218,0.109678 0.13997,0.108634 0.13997,0.294565 0,0.129524 -0.07416,0.219356 -0.07416,0.08879 -0.211,0.123258 z"
           style="fill:#464344;fill-opacity:1"
           id="path80099" />
        <path
           d="m 46.572028,15.635561 h 0.736412 v 0.177574 h -0.990239 v -0.177574 q 0.120124,-0.124302 0.326946,-0.333214 0.207867,-0.209955 0.261139,-0.27054 0.101322,-0.113856 0.141015,-0.192198 0.04074,-0.07939 0.04074,-0.155639 0,-0.124302 -0.08774,-0.202643 -0.0867,-0.07834 -0.226668,-0.07834 -0.09923,0 -0.209956,0.03447 -0.109678,0.03447 -0.235025,0.104456 v -0.213089 q 0.127436,-0.05118 0.238159,-0.0773 0.110723,-0.02611 0.202644,-0.02611 0.242336,0 0.386485,0.121168 0.144149,0.121168 0.144149,0.323812 0,0.0961 -0.03656,0.182797 -0.03551,0.08565 -0.130569,0.202644 -0.02611,0.03029 -0.166084,0.175486 -0.139971,0.144148 -0.394843,0.404243 z"
           style="fill:#464344;fill-opacity:1"
           id="path80096" />
        <path
           d="m 47.787891,15.635561 h 0.344703 v -1.189749 l -0.374996,0.07521 v -0.192198 l 0.372907,-0.07521 h 0.211 v 1.381947 h 0.344704 v 0.177574 h -0.898318 z"
           style="fill:#464344;fill-opacity:1"
           id="path80093" />
        <path
           d="m 49.134323,15.547818 h 0.220401 v 0.179664 l -0.171307,0.334257 H 49.04867 l 0.08565,-0.334257 z"
           style="fill:#464344;fill-opacity:1"
           id="path80090" />
        <path
           d="m 51.193143,15.081946 q 0.0679,0.02298 0.131614,0.09819 0.06476,0.07521 0.129525,0.206822 l 0.214134,0.426179 h -0.226669 l -0.19951,-0.400065 q -0.0773,-0.156683 -0.150416,-0.207866 -0.07207,-0.05118 -0.197421,-0.05118 h -0.229802 v 0.659114 h -0.211 v -1.559521 h 0.476317 q 0.267406,0 0.39902,0.111767 0.131614,0.111767 0.131614,0.337391 0,0.147283 -0.06894,0.244426 -0.0679,0.09714 -0.198466,0.134748 z M 50.664598,14.42701 v 0.553614 h 0.265317 q 0.152505,0 0.229802,-0.06999 0.07834,-0.07103 0.07834,-0.207867 0,-0.136836 -0.07834,-0.205777 -0.0773,-0.06999 -0.229802,-0.06999 z"
           style="fill:#464344;fill-opacity:1"
           id="path80087" />
        <path
           d="m 51.94,14.253614 h 0.896229 v 0.177574 H 52.151 v 0.459604 h 0.618377 v 0.177575 H 52.151 v 0.744768 H 51.94 Z"
           style="fill:#464344;fill-opacity:1"
           id="path80084" />
        <path
           d="m 54.3383,14.373737 v 0.222491 q -0.106544,-0.09923 -0.227713,-0.148327 -0.120124,-0.04909 -0.255916,-0.04909 -0.267406,0 -0.409466,0.163995 -0.14206,0.162951 -0.14206,0.472139 0,0.308144 0.14206,0.472139 0.14206,0.162951 0.409466,0.162951 0.135792,0 0.255916,-0.04909 0.121169,-0.04909 0.227713,-0.148327 v 0.220401 q -0.110723,0.07521 -0.235025,0.112812 -0.123257,0.0376 -0.261139,0.0376 -0.354104,0 -0.557793,-0.216223 -0.203688,-0.217267 -0.203688,-0.592263 0,-0.37604 0.203688,-0.592263 0.203689,-0.217267 0.557793,-0.217267 0.139971,0 0.263228,0.0376 0.124302,0.03656 0.232936,0.110722 z"
           style="fill:#464344;fill-opacity:1"
           id="path80081" />
        <path
           d="m 54.685092,14.253614 h 0.828333 v 0.177574 h -0.63509 v 0.382307 q 0.04596,-0.01567 0.09192,-0.02298 0.04596,-0.0084 0.09192,-0.0084 0.261139,0 0.413644,0.143104 0.152505,0.143104 0.152505,0.38753 0,0.251738 -0.156683,0.391708 -0.156684,0.138926 -0.441847,0.138926 -0.09819,0 -0.200555,-0.01671 -0.101322,-0.01671 -0.209956,-0.05014 v -0.212045 q 0.09401,0.05118 0.194288,0.07625 0.100277,0.02507 0.212045,0.02507 0.180708,0 0.286208,-0.09506 0.1055,-0.09505 0.1055,-0.258005 0,-0.162951 -0.1055,-0.258005 -0.1055,-0.09506 -0.286208,-0.09506 -0.08461,0 -0.169218,0.0188 -0.08357,0.0188 -0.171308,0.05849 z"
           style="fill:#464344;fill-opacity:1"
           id="path80078" />
        <path
           d="m 56.683328,14.972268 q 0.15146,0.03238 0.236069,0.134748 0.08565,0.102366 0.08565,0.252782 0,0.230847 -0.158773,0.357238 -0.158772,0.126391 -0.451248,0.126391 -0.09819,0 -0.202644,-0.01985 -0.103411,-0.0188 -0.214133,-0.05745 v -0.203688 q 0.08774,0.05118 0.192198,0.0773 0.104455,0.02611 0.218312,0.02611 0.198466,0 0.301877,-0.07834 0.104455,-0.07834 0.104455,-0.227713 0,-0.137881 -0.09714,-0.215178 -0.0961,-0.07834 -0.26845,-0.07834 h -0.181753 v -0.173396 h 0.190109 q 0.155639,0 0.238159,-0.06163 0.08252,-0.06267 0.08252,-0.179664 0,-0.120124 -0.08565,-0.183842 -0.08461,-0.06476 -0.243381,-0.06476 -0.0867,0 -0.185931,0.0188 -0.09923,0.0188 -0.218312,0.0585 v -0.18802 q 0.120123,-0.03343 0.224579,-0.05014 0.1055,-0.01671 0.198466,-0.01671 0.240247,0 0.380218,0.109678 0.13997,0.108634 0.13997,0.294565 0,0.129524 -0.07416,0.219356 -0.07416,0.08879 -0.211,0.123258 z"
           style="fill:#464344;fill-opacity:1"
           id="path80075" />
        <path
           d="m 57.586868,15.635561 h 0.736411 v 0.177574 h -0.990238 v -0.177574 q 0.120124,-0.124302 0.326946,-0.333214 0.207866,-0.209955 0.261138,-0.27054 0.101322,-0.113856 0.141015,-0.192198 0.04074,-0.07939 0.04074,-0.155639 0,-0.124302 -0.08774,-0.202643 -0.0867,-0.07834 -0.226668,-0.07834 -0.09923,0 -0.209956,0.03447 -0.109678,0.03447 -0.235025,0.104456 v -0.213089 q 0.127436,-0.05118 0.238159,-0.0773 0.110723,-0.02611 0.202644,-0.02611 0.242337,0 0.386485,0.121168 0.144149,0.121168 0.144149,0.323812 0,0.0961 -0.03656,0.182797 -0.03552,0.08565 -0.13057,0.202644 -0.02611,0.03029 -0.166084,0.175486 -0.139971,0.144148 -0.394842,0.404243 z"
           style="fill:#464344;fill-opacity:1"
           id="path80072" />
        <path
           d="m 58.947925,15.635561 h 0.736412 v 0.177574 h -0.990239 v -0.177574 q 0.120124,-0.124302 0.326946,-0.333214 0.207866,-0.209955 0.261139,-0.27054 0.101322,-0.113856 0.141015,-0.192198 0.04074,-0.07939 0.04074,-0.155639 0,-0.124302 -0.08774,-0.202643 -0.0867,-0.07834 -0.226669,-0.07834 -0.09923,0 -0.209956,0.03447 -0.109678,0.03447 -0.235025,0.104456 v -0.213089 q 0.127436,-0.05118 0.238159,-0.0773 0.110723,-0.02611 0.202644,-0.02611 0.242337,0 0.386486,0.121168 0.144148,0.121168 0.144148,0.323812 0,0.0961 -0.03656,0.182797 -0.03551,0.08565 -0.13057,0.202644 -0.02611,0.03029 -0.166084,0.175486 -0.13997,0.144148 -0.394842,0.404243 z"
           style="fill:#464344;fill-opacity:1"
           id="path80069" />
        <path
           d="m 60.149163,15.547818 h 0.220402 v 0.179664 l -0.171308,0.334257 H 60.06351 l 0.08565,-0.334257 z"
           style="fill:#464344;fill-opacity:1"
           id="path80066" />
        <path
           d="m 62.207983,15.081946 q 0.0679,0.02298 0.131614,0.09819 0.06476,0.07521 0.129525,0.206822 l 0.214134,0.426179 h -0.226669 l -0.19951,-0.400065 q -0.0773,-0.156683 -0.150416,-0.207866 -0.07207,-0.05118 -0.197421,-0.05118 h -0.229802 v 0.659114 h -0.211 v -1.559521 h 0.476317 q 0.267406,0 0.39902,0.111767 0.131614,0.111767 0.131614,0.337391 0,0.147283 -0.06894,0.244426 -0.0679,0.09714 -0.198466,0.134748 z M 61.679438,14.42701 v 0.553614 h 0.265317 q 0.152505,0 0.229802,-0.06999 0.07834,-0.07103 0.07834,-0.207867 0,-0.136836 -0.07834,-0.205777 -0.0773,-0.06999 -0.229802,-0.06999 z"
           style="fill:#464344;fill-opacity:1"
           id="path80063" />
        <path
           d="m 62.95484,14.253614 h 0.896229 v 0.177574 H 63.16584 v 0.459604 h 0.618377 v 0.177575 H 63.16584 v 0.744768 h -0.211 z"
           style="fill:#464344;fill-opacity:1"
           id="path80060" />
        <path
           d="m 65.353139,14.373737 v 0.222491 q -0.106544,-0.09923 -0.227713,-0.148327 -0.120124,-0.04909 -0.255916,-0.04909 -0.267406,0 -0.409466,0.163995 -0.142059,0.162951 -0.142059,0.472139 0,0.308144 0.142059,0.472139 0.14206,0.162951 0.409466,0.162951 0.135792,0 0.255916,-0.04909 0.121169,-0.04909 0.227713,-0.148327 v 0.220401 q -0.110723,0.07521 -0.235025,0.112812 -0.123257,0.0376 -0.261139,0.0376 -0.354104,0 -0.557792,-0.216223 -0.203689,-0.217267 -0.203689,-0.592263 0,-0.37604 0.203689,-0.592263 0.203688,-0.217267 0.557792,-0.217267 0.139971,0 0.263228,0.0376 0.124303,0.03656 0.232936,0.110722 z"
           style="fill:#464344;fill-opacity:1"
           id="path80057" />
        <path
           d="m 65.644571,14.253614 h 1.002774 v 0.08983 l -0.56615,1.46969 h -0.220401 l 0.532723,-1.381947 h -0.748946 z"
           style="fill:#464344;fill-opacity:1"
           id="path80054" />
        <path
           d="m 67.240651,15.635561 h 0.736412 v 0.177574 h -0.990239 v -0.177574 q 0.120124,-0.124302 0.326946,-0.333214 0.207867,-0.209955 0.261139,-0.27054 0.101322,-0.113856 0.141015,-0.192198 0.04074,-0.07939 0.04074,-0.155639 0,-0.124302 -0.08774,-0.202643 -0.0867,-0.07834 -0.226668,-0.07834 -0.09923,0 -0.209956,0.03447 -0.109678,0.03447 -0.235025,0.104456 v -0.213089 q 0.127436,-0.05118 0.238159,-0.0773 0.110723,-0.02611 0.202643,-0.02611 0.242337,0 0.386486,0.121168 0.144149,0.121168 0.144149,0.323812 0,0.0961 -0.03656,0.182797 -0.03552,0.08565 -0.130569,0.202644 -0.02611,0.03029 -0.166085,0.175486 -0.13997,0.144148 -0.394842,0.404243 z"
           style="fill:#464344;fill-opacity:1"
           id="path80051" />
        <path
           d="m 68.871202,14.392539 q -0.16295,0 -0.24547,0.160862 -0.08148,0.159817 -0.08148,0.48154 0,0.320679 0.08148,0.48154 0.08252,0.159817 0.24547,0.159817 0.163995,0 0.245471,-0.159817 0.08252,-0.160861 0.08252,-0.48154 0,-0.321723 -0.08252,-0.48154 -0.08148,-0.160862 -0.245471,-0.160862 z m 0,-0.167128 q 0.262184,0 0.400065,0.207866 0.138926,0.206822 0.138926,0.601664 0,0.393798 -0.138926,0.601664 -0.137881,0.206822 -0.400065,0.206822 -0.262183,0 -0.401109,-0.206822 -0.137882,-0.207866 -0.137882,-0.601664 0,-0.394842 0.137882,-0.601664 0.138926,-0.207866 0.401109,-0.207866 z"
           style="fill:#464344;fill-opacity:1"
           id="path80048" />
        <path
           d="m 70.232259,15.072545 q -0.150416,0 -0.237114,0.08043 -0.08565,0.08043 -0.08565,0.221446 0,0.141015 0.08565,0.221446 0.0867,0.08043 0.237114,0.08043 0.150416,0 0.237115,-0.08043 0.0867,-0.08148 0.0867,-0.221446 0,-0.141015 -0.0867,-0.221446 -0.08565,-0.08043 -0.237115,-0.08043 z m -0.211,-0.08983 q -0.135792,-0.03343 -0.212045,-0.126391 -0.07521,-0.09297 -0.07521,-0.226668 0,-0.186976 0.132659,-0.29561 0.133703,-0.108633 0.365594,-0.108633 0.232936,0 0.365595,0.108633 0.132659,0.108634 0.132659,0.29561 0,0.133703 -0.07625,0.226668 -0.07521,0.09297 -0.209956,0.126391 0.152505,0.03552 0.237114,0.138926 0.08565,0.103411 0.08565,0.252783 0,0.226668 -0.138926,0.347837 -0.137881,0.121168 -0.395887,0.121168 -0.258005,0 -0.396931,-0.121168 -0.137881,-0.121169 -0.137881,-0.347837 0,-0.149372 0.08565,-0.252783 0.08565,-0.103411 0.238158,-0.138926 z m -0.0773,-0.333213 q 0,0.121169 0.07521,0.189065 0.07625,0.0679 0.213089,0.0679 0.135793,0 0.212045,-0.0679 0.0773,-0.0679 0.0773,-0.189065 0,-0.121168 -0.0773,-0.189064 -0.07625,-0.0679 -0.212045,-0.0679 -0.136836,0 -0.213089,0.0679 -0.07521,0.0679 -0.07521,0.189064 z"
           style="fill:#464344;fill-opacity:1"
           id="path80045" />
        <path
           d="m 71.164002,15.547818 h 0.220402 v 0.179664 l -0.171307,0.334257 h -0.134748 l 0.08565,-0.334257 z"
           style="fill:#464344;fill-opacity:1"
           id="path80042" />
        <path
           d="m 73.22282,15.081946 q 0.0679,0.02298 0.131614,0.09819 0.06476,0.07521 0.129525,0.206822 l 0.214134,0.426179 H 73.471425 L 73.271914,15.41307 q -0.0773,-0.156683 -0.150416,-0.207866 -0.07207,-0.05118 -0.197421,-0.05118 h -0.229802 v 0.659114 h -0.211 v -1.559521 h 0.476317 q 0.267407,0 0.399021,0.111767 0.131614,0.111767 0.131614,0.337391 0,0.147283 -0.06894,0.244426 -0.0679,0.09714 -0.198466,0.134748 z M 72.694275,14.42701 v 0.553614 h 0.265317 q 0.152505,0 0.229803,-0.06999 0.07834,-0.07103 0.07834,-0.207867 0,-0.136836 -0.07834,-0.205777 -0.0773,-0.06999 -0.229803,-0.06999 z"
           style="fill:#464344;fill-opacity:1"
           id="path80039" />
        <path
           d="m 73.969679,14.253614 h 0.896229 v 0.177574 H 74.18068 v 0.459604 h 0.618377 v 0.177575 H 74.18068 v 0.744768 h -0.211001 z"
           style="fill:#464344;fill-opacity:1"
           id="path80036" />
        <path
           d="m 76.36798,14.373737 v 0.222491 q -0.106544,-0.09923 -0.227713,-0.148327 -0.120124,-0.04909 -0.255916,-0.04909 -0.267406,0 -0.409466,0.163995 -0.142059,0.162951 -0.142059,0.472139 0,0.308144 0.142059,0.472139 0.14206,0.162951 0.409466,0.162951 0.135792,0 0.255916,-0.04909 0.121169,-0.04909 0.227713,-0.148327 v 0.220401 q -0.110722,0.07521 -0.235025,0.112812 -0.123257,0.0376 -0.261139,0.0376 -0.354104,0 -0.557792,-0.216223 -0.203689,-0.217267 -0.203689,-0.592263 0,-0.37604 0.203689,-0.592263 0.203688,-0.217267 0.557792,-0.217267 0.139971,0 0.263229,0.0376 0.124302,0.03656 0.232935,0.110722 z"
           style="fill:#464344;fill-opacity:1"
           id="path80033" />
        <path
           d="m 76.65941,14.253614 h 1.002774 v 0.08983 l -0.56615,1.46969 h -0.220401 l 0.532724,-1.381947 H 76.65941 Z"
           style="fill:#464344;fill-opacity:1"
           id="path80030" />
        <path
           d="m 78.653468,14.437455 -0.532723,0.832511 h 0.532723 z m -0.05536,-0.183841 h 0.265317 v 1.016352 h 0.22249 v 0.175486 h -0.22249 v 0.367683 h -0.209956 v -0.367683 h -0.70403 v -0.203689 z"
           style="fill:#464344;fill-opacity:1"
           id="path80027" />
        <path
           d="m 79.886041,15.072545 q -0.150416,0 -0.237114,0.08043 -0.08565,0.08043 -0.08565,0.221446 0,0.141015 0.08565,0.221446 0.0867,0.08043 0.237114,0.08043 0.150416,0 0.237115,-0.08043 0.0867,-0.08148 0.0867,-0.221446 0,-0.141015 -0.0867,-0.221446 -0.08565,-0.08043 -0.237115,-0.08043 z m -0.211,-0.08983 q -0.135792,-0.03343 -0.212045,-0.126391 -0.07521,-0.09297 -0.07521,-0.226668 0,-0.186976 0.132659,-0.29561 0.133703,-0.108633 0.365594,-0.108633 0.232936,0 0.365595,0.108633 0.132658,0.108634 0.132658,0.29561 0,0.133703 -0.07625,0.226668 -0.07521,0.09297 -0.209956,0.126391 0.152505,0.03552 0.237114,0.138926 0.08565,0.103411 0.08565,0.252783 0,0.226668 -0.138926,0.347837 -0.137881,0.121168 -0.395887,0.121168 -0.258005,0 -0.396931,-0.121168 -0.137881,-0.121169 -0.137881,-0.347837 0,-0.149372 0.08565,-0.252783 0.08565,-0.103411 0.238159,-0.138926 z m -0.0773,-0.333213 q 0,0.121169 0.07521,0.189065 0.07625,0.0679 0.213089,0.0679 0.135793,0 0.212045,-0.0679 0.0773,-0.0679 0.0773,-0.189065 0,-0.121168 -0.0773,-0.189064 -0.07625,-0.0679 -0.212045,-0.0679 -0.136836,0 -0.213089,0.0679 -0.07521,0.0679 -0.07521,0.189064 z"
           style="fill:#464344;fill-opacity:1"
           id="path80024" />
        <path
           d="m 80.802118,15.780754 v -0.192198 q 0.07939,0.0376 0.160861,0.05745 0.08148,0.01985 0.159818,0.01985 0.208911,0 0.318589,-0.139971 0.110723,-0.141015 0.126391,-0.427223 -0.06058,0.08983 -0.153549,0.137881 -0.09297,0.04805 -0.205778,0.04805 -0.23398,0 -0.370817,-0.141015 -0.135792,-0.14206 -0.135792,-0.38753 0,-0.240248 0.142059,-0.385441 0.14206,-0.145193 0.378129,-0.145193 0.27054,0 0.4126,0.207866 0.143104,0.206822 0.143104,0.601664 0,0.368728 -0.175485,0.58913 -0.174441,0.219356 -0.47005,0.219356 -0.07939,0 -0.160862,-0.01567 -0.08147,-0.01567 -0.169218,-0.04701 z m 0.419911,-0.661204 q 0.14206,0 0.22458,-0.09714 0.08356,-0.09714 0.08356,-0.266361 0,-0.168174 -0.08356,-0.265317 -0.08252,-0.09819 -0.22458,-0.09819 -0.142059,0 -0.225624,0.09819 -0.08252,0.09714 -0.08252,0.265317 0,0.169218 0.08252,0.266361 0.08357,0.09714 0.225624,0.09714 z"
           style="fill:#464344;fill-opacity:1"
           id="path80021" />
        <path
           d="m 82.178844,15.547818 h 0.220401 v 0.179664 l -0.171307,0.334257 H 82.09319 l 0.08565,-0.334257 z"
           style="fill:#464344;fill-opacity:1"
           id="path80018" />
        <path
           d="m 84.237663,15.081946 q 0.0679,0.02298 0.131614,0.09819 0.06476,0.07521 0.129525,0.206822 l 0.214134,0.426179 H 84.486268 L 84.286757,15.41307 q -0.0773,-0.156683 -0.150416,-0.207866 -0.07207,-0.05118 -0.197421,-0.05118 h -0.229802 v 0.659114 h -0.211 v -1.559521 h 0.476317 q 0.267407,0 0.399021,0.111767 0.131614,0.111767 0.131614,0.337391 0,0.147283 -0.06894,0.244426 -0.0679,0.09714 -0.198466,0.134748 z M 83.709118,14.42701 v 0.553614 h 0.265317 q 0.152505,0 0.229803,-0.06999 0.07834,-0.07103 0.07834,-0.207867 0,-0.136836 -0.07834,-0.205777 -0.0773,-0.06999 -0.229803,-0.06999 z"
           style="fill:#464344;fill-opacity:1"
           id="path80015" />
        <path
           d="m 84.984519,14.253614 h 0.896228 v 0.177574 h -0.685228 v 0.459604 h 0.618377 v 0.177575 h -0.618377 v 0.744768 h -0.211 z"
           style="fill:#464344;fill-opacity:1"
           id="path80012" />
        <path
           d="m 87.38282,14.373737 v 0.222491 q -0.106545,-0.09923 -0.227714,-0.148327 -0.120123,-0.04909 -0.255916,-0.04909 -0.267406,0 -0.409466,0.163995 -0.142059,0.162951 -0.142059,0.472139 0,0.308144 0.142059,0.472139 0.14206,0.162951 0.409466,0.162951 0.135793,0 0.255916,-0.04909 0.121169,-0.04909 0.227714,-0.148327 v 0.220401 q -0.110723,0.07521 -0.235025,0.112812 -0.123258,0.0376 -0.261139,0.0376 -0.354105,0 -0.557793,-0.216223 -0.203688,-0.217267 -0.203688,-0.592263 0,-0.37604 0.203688,-0.592263 0.203688,-0.217267 0.557793,-0.217267 0.13997,0 0.263228,0.0376 0.124302,0.03656 0.232936,0.110722 z"
           style="fill:#464344;fill-opacity:1"
           id="path80009" />
        <path
           d="m 88.204884,14.949288 q -0.14206,0 -0.225624,0.09714 -0.08252,0.09714 -0.08252,0.266362 0,0.168173 0.08252,0.266362 0.08356,0.09714 0.225624,0.09714 0.142059,0 0.224579,-0.09714 0.08357,-0.09819 0.08357,-0.266362 0,-0.169218 -0.08357,-0.266362 -0.08252,-0.09714 -0.224579,-0.09714 z m 0.418867,-0.661204 v 0.192198 q -0.07939,-0.0376 -0.160862,-0.05745 -0.08043,-0.01985 -0.159817,-0.01985 -0.208911,0 -0.319634,0.141015 -0.109678,0.141015 -0.125347,0.426179 0.06163,-0.09088 0.154594,-0.138926 0.09297,-0.04909 0.204733,-0.04909 0.235025,0 0.370818,0.143104 0.136836,0.142059 0.136836,0.38753 0,0.240248 -0.142059,0.385441 -0.14206,0.145193 -0.378129,0.145193 -0.27054,0 -0.413644,-0.206822 -0.143104,-0.207866 -0.143104,-0.601664 0,-0.369773 0.175485,-0.589129 0.175485,-0.220401 0.471094,-0.220401 0.07939,0 0.159817,0.01567 0.08148,0.01567 0.169219,0.04701 z"
           style="fill:#464344;fill-opacity:1"
           id="path80006" />
        <path
           d="m 89.727847,14.972268 q 0.151461,0.03238 0.23607,0.134748 0.08565,0.102366 0.08565,0.252782 0,0.230847 -0.158772,0.357238 -0.158773,0.126391 -0.451248,0.126391 -0.09819,0 -0.202644,-0.01985 -0.103411,-0.0188 -0.214134,-0.05745 v -0.203688 q 0.08774,0.05118 0.192198,0.0773 0.104456,0.02611 0.218312,0.02611 0.198466,0 0.301877,-0.07834 0.104456,-0.07834 0.104456,-0.227713 0,-0.137881 -0.09714,-0.215178 -0.0961,-0.07834 -0.268451,-0.07834 h -0.181753 v -0.173396 h 0.19011 q 0.155638,0 0.238158,-0.06163 0.08252,-0.06267 0.08252,-0.179664 0,-0.120124 -0.08565,-0.183842 -0.08461,-0.06476 -0.243382,-0.06476 -0.0867,0 -0.185931,0.0188 -0.09923,0.0188 -0.218312,0.0585 v -0.18802 q 0.120124,-0.03343 0.224579,-0.05014 0.105501,-0.01671 0.198466,-0.01671 0.240248,0 0.380218,0.109678 0.139971,0.108634 0.139971,0.294565 0,0.129524 -0.07416,0.219356 -0.07416,0.08879 -0.211,0.123258 z"
           style="fill:#464344;fill-opacity:1"
           id="path80003" />
        <path
           d="m 90.396364,14.253614 h 1.002773 v 0.08983 l -0.566149,1.46969 h -0.220401 l 0.532723,-1.381947 h -0.748946 z"
           style="fill:#464344;fill-opacity:1"
           id="path80000" />
        <path
           d="m 92.288052,14.949288 q -0.14206,0 -0.225624,0.09714 -0.08252,0.09714 -0.08252,0.266362 0,0.168173 0.08252,0.266362 0.08356,0.09714 0.225624,0.09714 0.142059,0 0.224579,-0.09714 0.08357,-0.09819 0.08357,-0.266362 0,-0.169218 -0.08357,-0.266362 -0.08252,-0.09714 -0.224579,-0.09714 z m 0.418867,-0.661204 v 0.192198 q -0.07939,-0.0376 -0.160862,-0.05745 -0.08043,-0.01985 -0.159817,-0.01985 -0.208911,0 -0.319634,0.141015 -0.109678,0.141015 -0.125347,0.426179 0.06163,-0.09088 0.154594,-0.138926 0.09297,-0.04909 0.204733,-0.04909 0.235025,0 0.370818,0.143104 0.136836,0.142059 0.136836,0.38753 0,0.240248 -0.142059,0.385441 -0.14206,0.145193 -0.378129,0.145193 -0.27054,0 -0.413644,-0.206822 -0.143104,-0.207866 -0.143104,-0.601664 0,-0.369773 0.175485,-0.589129 0.175485,-0.220401 0.471094,-0.220401 0.07939,0 0.159818,0.01567 0.08147,0.01567 0.169218,0.04701 z"
           style="fill:#464344;fill-opacity:1"
           id="path79997" />
      </g>
      <text
         xml:space="preserve"
         style="font-style:normal;font-weight:normal;font-size:6.65126px;line-height:1.25;font-family:sans-serif;fill:#000000;fill-opacity:1;stroke:none;stroke-width:0.0444645"
         x="36.450279"
         y="-4.3085918"
         id="text1492"
         transform="matrix(1.2006913,0.014438,-0.00959741,0.83273812,0,0)"><tspan
           sodipodi:role="line"
           id="tspan1490"
           style="font-style:normal;font-variant:normal;font-weight:normal;font-stretch:normal;font-family:monospace;-inkscape-font-specification:monospace;stroke-width:0.0444645"
           x="36.450279"
           y="-4.3085918" /></text>
    </g>
  </g>
</svg>
