<?xml version="1.0" encoding="UTF-8" standalone="no"?>
<!-- Created with Inkscape (http://www.inkscape.org/) -->

<svg
   width="210mm"
   height="297mm"
   viewBox="0 0 210 297"
   version="1.1"
   id="svg16108"
   inkscape:version="1.1.1 (3bf5ae0d25, 2021-09-20, custom)"
   sodipodi:docname="dumpster_back.svg"
   xmlns:inkscape="http://www.inkscape.org/namespaces/inkscape"
   xmlns:sodipodi="http://sodipodi.sourceforge.net/DTD/sodipodi-0.dtd"
   xmlns="http://www.w3.org/2000/svg"
   xmlns:svg="http://www.w3.org/2000/svg">
  <sodipodi:namedview
     id="namedview16110"
     pagecolor="#ffffff"
     bordercolor="#666666"
     borderopacity="1.0"
     inkscape:pageshadow="2"
     inkscape:pageopacity="0.0"
     inkscape:pagecheckerboard="0"
     inkscape:document-units="mm"
     showgrid="false"
     inkscape:zoom="7.8917402"
     inkscape:cx="309.62753"
     inkscape:cy="144.45483"
     inkscape:window-width="3840"
     inkscape:window-height="2160"
     inkscape:window-x="0"
     inkscape:window-y="0"
     inkscape:window-maximized="1"
     inkscape:current-layer="layer1" />
  <defs
     id="defs16105" />
  <g
     inkscape:label="Layer 1"
     inkscape:groupmode="layer"
     id="layer1">
    <path
       style="fill:#141414;fill-opacity:1;stroke:#000000;stroke-width:0.0780113px;stroke-linecap:butt;stroke-linejoin:miter;stroke-opacity:1"
       d="M 0.58045644,35.616742 78.669172,35.451651 79.589145,36.340622 0.59467344,36.904612 Z"
       id="path1636-2"
       sodipodi:nodetypes="ccccc" />
    <path
       style="fill:#000000;stroke:#000000;stroke-width:0.0848629px;stroke-linecap:butt;stroke-linejoin:miter;stroke-opacity:1"
       d="M 2.4885854,33.687153 2.2054693,33.2681 1.8973317,2.1449085 c 0,0 -0.1646434,-0.6302767 0.4341669,-0.6870353 C 2.930309,1.4010862 37.568469,0.92128758 37.568469,0.92128758 l 0.759485,0.45282872 -0.01924,2.1610675 z"
       id="path14652-5"
       sodipodi:nodetypes="cccscccc" />
    <path
       style="fill:#241c1c;stroke:#000000;stroke-width:0.0721984px;stroke-linecap:butt;stroke-linejoin:miter;stroke-opacity:1"
       d="M 2.4885834,33.687153 2.2633279,2.6220301 c 0,0 -0.044682,-0.7127937 0.2442041,-0.7768655 0.288879,-0.064114 35.268658,-0.6383227 35.268658,-0.6383227 0,0 0.614198,-0.1156872 0.773025,0.5095591 0.158837,0.6253167 0.414849,31.722468 0.414849,31.722468 z"
       id="path13409-3" />
    <path
       style="fill:#483737;stroke:#000000;stroke-width:0.0848629px;stroke-linecap:butt;stroke-linejoin:miter;stroke-opacity:1"
       d="M 3.6482379,32.520642 3.4117484,3.1741158 c 0,0 -0.063619,-0.5166186 0.4852508,-0.5566089 0.5488543,-0.040018 33.3852318,-0.3250655 33.3852318,-0.3250655 0,0 0.640552,-0.1808299 0.689151,0.5747159 0.04858,0.7555317 0.321453,29.7291397 0.321453,29.7291397 z"
       id="path13616-5" />
    <path
       style="fill:#000000;stroke:#000000;stroke-width:0.0848629px;stroke-linecap:butt;stroke-linejoin:miter;stroke-opacity:1"
       d="M 41.886999,33.48668 41.603883,33.067627 41.295745,1.9444358 c 0,0 -0.164643,-0.6302768 0.434167,-0.6870354 0.59881,-0.056787 35.236969,-0.53657152 35.236969,-0.53657152 l 0.759483,0.45282872 -0.0192,2.1610534 z"
       id="path14652-5-2"
       sodipodi:nodetypes="cccscccc" />
    <path
       style="fill:#241c1c;stroke:#000000;stroke-width:0.0721984px;stroke-linecap:butt;stroke-linejoin:miter;stroke-opacity:1"
       d="M 41.886997,33.48668 41.661741,2.4215714 c 0,0 -0.04468,-0.7128078 0.244204,-0.7768796 0.288879,-0.064114 35.268659,-0.6383086 35.268659,-0.6383086 0,0 0.614199,-0.11568722 0.773021,0.509545 0.158841,0.6253167 0.414855,31.7224678 0.414855,31.7224678 z"
       id="path13409-3-9" />
    <path
       style="fill:#483737;stroke:#000000;stroke-width:0.0848629px;stroke-linecap:butt;stroke-linejoin:miter;stroke-opacity:1"
       d="M 43.046651,32.32017 42.810162,2.9736571 c 0,0 -0.06362,-0.5166186 0.485251,-0.5566089 0.548854,-0.040019 33.385229,-0.3250655 33.385229,-0.3250655 0,0 0.640555,-0.180844 0.689157,0.5747018 0.04859,0.7555458 0.321452,29.7291395 0.321452,29.7291395 z"
       id="path13616-5-1" />
    <path
       style="fill:#241c1c;stroke:#000000;stroke-width:0.0744935px;stroke-linecap:butt;stroke-linejoin:miter;stroke-opacity:1"
       d="m 79.589145,36.340622 1.249868,-0.02935 0.0541,-2.507485 c 0,0 0.0672,-0.787904 -0.65712,-0.786774 -0.45268,7.13e-4 -1.103308,-0.0037 -1.103308,-0.0037 z"
       id="path5372"
       sodipodi:nodetypes="cccscc" />
    <path
       style="fill:#241c1c;fill-opacity:1;stroke:#000000;stroke-width:0.0744935px;stroke-linecap:butt;stroke-linejoin:miter;stroke-opacity:1"
       d="m 79.589145,36.340622 0.127798,-2.694324 c 0,0 0.0115,-0.619127 -0.551615,-0.636513 -0.563875,-0.01739 -0.471096,0.483134 -0.471096,0.483134 l -0.02506,1.958732 z"
       id="path5147"
       sodipodi:nodetypes="ccsccc" />
    <path
       style="fill:#141414;stroke:#000000;stroke-width:0.0780113px;stroke-linecap:butt;stroke-linejoin:miter;stroke-opacity:1;fill-opacity:1"
       d="m 1.7978894,33.482482 77.1671956,-0.34242 c 0,0 0.43218,0.009 0.41647,0.36567 -0.0152,0.35611 -0.61614,0.29752 -0.61614,0.29752 l -76.7240256,0.41339 z"
       id="path7032-7" />
    <path
       style="fill:#141414;stroke:#000000;stroke-width:0.0725984px;stroke-linecap:butt;stroke-linejoin:miter;stroke-opacity:1;fill-opacity:1"
       d="m 79.534484,36.296367 7.270959,6.651412 1.25703,-0.01577 -7.22346,-6.620737 z"
       id="path2610"
       sodipodi:nodetypes="ccccc" />
  </g>
</svg>
